<svg width="23" height="36" viewBox="0 0 23 36" fill="none" xmlns="http://www.w3.org/2000/svg">
<path d="M21.5594 1.38414L21.8885 1.00769C21.7003 0.843179 21.4803 0.715689 21.2426 0.629674C21.0048 0.543663 20.7519 0.5 20.4977 0.5C20.2435 0.5 19.9906 0.543663 19.7528 0.629674C19.5153 0.715617 19.2955 0.842966 19.1074 1.00727L21.5594 1.38414ZM21.5594 1.38414L21.8876 1.00686C22.0763 1.17102 22.2303 1.36978 22.337 1.59388C22.4438 1.81827 22.5 2.06181 22.5 2.30988C22.5 2.55794 22.4438 2.80149 22.337 3.02588C22.2303 3.24993 22.0764 3.44865 21.8877 3.61278C21.8876 3.61282 21.8876 3.61285 21.8876 3.61289L5.38365 18.0003L21.888 32.3882L21.888 32.3882C22.2692 32.7205 22.4992 33.1871 22.4992 33.6908C22.4992 34.1945 22.2692 34.6611 21.888 34.9934C21.5091 35.3238 21.0081 35.5 20.4977 35.5C19.9873 35.5 19.4863 35.3238 19.1074 34.9934L1.11245 19.3034L19.9229 1.09985C20.1051 1.03393 20.3005 1 20.4977 1C20.695 1 20.8903 1.03393 21.0725 1.09985C21.2546 1.16576 21.4201 1.26237 21.5594 1.38414ZM19.1069 1.00769L1.11245 16.6973C1.11235 16.6974 1.11226 16.6975 1.11216 16.6976C0.923546 16.8617 0.769631 17.0604 0.663034 17.2843C0.556243 17.5087 0.5 17.7523 0.5 18.0003C0.5 18.2484 0.556243 18.492 0.663034 18.7163C0.769596 18.9403 0.923444 19.1389 1.11197 19.3029L19.1069 1.00769Z" fill="white" stroke="white"/>
</svg>
