<?xml version="1.0"?>
<svg xmlns="http://www.w3.org/2000/svg" width="241" height="60" viewBox="0 0 241 60" fill="none">
<path d="M41.3663 53.923C53.1281 52.8241 51.6975 51.2981 51.8635 29.4229C51.8785 27.4427 51.823 22.9975 51.8606 21.5478C52.1474 10.5024 44.6187 6.84323 35.6692 7.00697C35.5786 7.00863 35.3967 7.01312 35.3967 7.01312C35.3967 7.01312 34.5294 7.04775 34.5294 7.54776L34.5294 16.0478L34.5294 17.0478C34.5294 17.5478 34.7533 17.5478 35.0294 17.5478C35.5294 17.5478 35.5683 17.5536 35.8634 17.5478C37.3634 17.5754 37.3634 19.9228 37.3634 19.9228V42.0479C37.3634 43.1653 34.8634 43.3479 34.8634 43.3479H22.0294C22.0294 43.3479 21.7715 43.3479 21.5294 43.5479L21.5203 43.5554C21.328 43.7141 21.2294 43.7956 21.2294 44.0062V52.3183V53.0753C21.2294 53.5753 21.5925 54.0142 22.0294 54.048L23.5294 54.0479C23.5294 54.0479 40.2462 54.0276 41.3663 53.923Z" fill="white"/>
<path d="M11.6925 7.00177C0.0720596 6.87677 1.179 9.75167 1.01298 31.6269C0.997955 33.6071 0.950815 37.8916 1.02926 39.502C1.56689 50.5379 8.44004 54.2065 17.3896 54.0428C17.4802 54.0411 17.662 54.0366 17.662 54.0366C17.662 54.0366 18.5294 54.002 18.5294 53.502L18.5294 45.002L18.5294 44.0019C18.5294 43.5019 18.3055 43.5019 18.0294 43.5019C17.5293 43.5019 17.4904 43.4961 17.1954 43.502C15.6954 43.4743 15.6954 41.1269 15.6954 41.1269V19.0019C15.6954 17.8844 18.1954 17.7019 18.1954 17.7019H31.0294C31.0294 17.7019 31.2872 17.7019 31.5294 17.5018L31.5385 17.4944C31.7307 17.3356 31.8294 17.2542 31.8294 17.0435V8.7314V7.97442C31.8294 7.47442 31.4663 7.03559 31.0294 7.00176L29.5294 7.0018C29.5294 7.0018 13.2499 7.01852 11.6925 7.00177Z" fill="white"/>
<path d="M57.7163 21.2C57.7163 20.6477 58.164 20.2 58.7163 20.2H70.6163C71.1686 20.2 71.6163 20.6477 71.6163 21.2V53.2C71.6163 53.7523 71.1686 54.2 70.6163 54.2H58.7163C58.164 54.2 57.7163 53.7523 57.7163 53.2V21.2Z" fill="white"/>
<path d="M94.0164 6.99999L58.0165 6.99998L52.0163 7C51.5163 7.5 56.1164 15.9001 58.5164 17.5001H91.5164C91.5164 17.5001 92.947 17.4308 93.5163 18C94.0856 18.5693 94.0164 20.0001 94.0164 20.0001V24.5001C94.0164 24.5001 93.9896 25.8788 93.5163 26.5C93.0284 27.1403 92.0164 27.0001 92.0164 27.0001L80.5163 27H75.0163C74.3092 27 77.5163 32 77.5163 32L90.5163 52C90.5163 52 91.2076 53.1913 91.5163 53.5C91.9529 53.9367 93.0163 54 93.0163 54H104.516C104.516 54 106.516 54 106.516 53C106.516 50.9384 103.016 46 103.016 46L99.5163 41L98.5163 39.5C98.0163 38.5 98.1163 36.8 100.516 36C100.516 36 110.016 33.5001 108.016 18.0001C107.222 11.8456 99.6925 7.00002 94.0164 6.99999Z" fill="white"/>
<path d="M114.016 8C114.016 7.44772 114.464 7 115.016 7H127.016C127.569 7 128.016 7.44772 128.016 8V53.2C128.016 53.7523 127.569 54.2 127.016 54.2H115.016C114.464 54.2 114.016 53.7523 114.016 53.2V8Z" fill="white"/>
<path d="M174.037 53.923C185.799 52.8241 184.368 51.2981 184.534 29.4229C184.549 27.4427 184.494 22.9975 184.531 21.5478C184.818 10.5024 177.289 6.84323 168.34 7.00697C168.249 7.00863 168.067 7.01312 168.067 7.01312C168.067 7.01312 167.2 7.04775 167.2 7.54776L167.2 16.0478L167.2 17.0478C167.2 17.5478 167.424 17.5478 167.7 17.5478C168.2 17.5478 168.239 17.5536 168.534 17.5478C170.034 17.5754 170.034 19.9228 170.034 19.9228V42.0479C170.034 43.1653 167.534 43.3479 167.534 43.3479H154.7C154.7 43.3479 154.442 43.3479 154.2 43.5479L154.191 43.5554C153.999 43.7141 153.9 43.7956 153.9 44.0062V52.3183V53.0753C153.9 53.5753 154.263 54.0142 154.7 54.048L156.2 54.0479C156.2 54.0479 172.917 54.0276 174.037 53.923Z" fill="white"/>
<path d="M144.693 7.00177C133.072 6.87677 134.179 9.75167 134.013 31.6269C133.998 33.6071 133.951 37.8916 134.029 39.502C134.567 50.5379 141.44 54.2065 150.39 54.0428C150.48 54.0411 150.662 54.0366 150.662 54.0366C150.662 54.0366 151.529 54.002 151.529 53.502L151.529 45.002L151.529 44.0019C151.529 43.5019 151.306 43.5019 151.029 43.5019C150.529 43.5019 150.491 43.4961 150.195 43.502C148.695 43.4743 148.695 41.1269 148.695 41.1269V19.0019C148.695 17.8844 151.195 17.7019 151.195 17.7019H164.029C164.029 17.7019 164.287 17.7019 164.529 17.5018L164.539 17.4944C164.731 17.3356 164.829 17.2542 164.829 17.0435V8.7314V7.97442C164.829 7.47442 164.466 7.03559 164.029 7.00176L162.529 7.0018C162.529 7.0018 146.25 7.01852 144.693 7.00177Z" fill="white"/>
<path d="M190.316 20.4265C190.316 19.5339 191.397 19.0885 192.026 19.7219L203.926 31.7075C204.112 31.8949 204.216 32.1481 204.216 32.4121V53.2C204.216 53.7523 203.769 54.2 203.216 54.2H191.316C190.764 54.2 190.316 53.7523 190.316 53.2L190.316 20.4265Z" fill="white"/>
<path d="M240.716 40.8226C240.716 41.7082 239.65 42.1567 239.017 41.5373L227.117 29.8942C226.925 29.706 226.816 29.4484 226.816 29.1794V8.00001C226.816 7.44773 227.264 7.00001 227.816 7.00001H239.716C240.269 7.00001 240.716 7.44773 240.716 8.00001L240.716 40.8226Z" fill="white"/>
<path d="M236.516 60L190.316 15C190.316 15 190.28 10.7276 190.316 6.50005C190.331 4.81041 190.316 1 190.316 0.500073C190.316 0.000141174 192.716 -0.0998976 193.516 0.500083C195.516 2.00005 198.016 4.99998 198.016 4.99998L240.716 47.5V58V59.5C240.716 60 240.516 60 239.016 60H236.516Z" fill="white"/>
</svg>
