<svg width="23" height="36" viewBox="0 0 23 36" fill="none" xmlns="http://www.w3.org/2000/svg">
<path d="M1.44057 34.6159L1.1115 34.9923C1.2997 35.1568 1.51969 35.2843 1.75743 35.3703C1.99516 35.4563 2.24811 35.5 2.5023 35.5C2.75648 35.5 3.00943 35.4563 3.24716 35.3703C3.4847 35.2844 3.70453 35.157 3.89262 34.9927L1.44057 34.6159ZM1.44057 34.6159L1.11245 34.9931C0.923698 34.829 0.769683 34.6302 0.663034 34.4061C0.556243 34.1817 0.499997 33.9382 0.499997 33.6901C0.499997 33.4421 0.556243 33.1985 0.663034 32.9741C0.76966 32.7501 0.923629 32.5514 1.11232 32.3872C1.11236 32.3872 1.1124 32.3871 1.11245 32.3871L17.6163 17.9997L1.11201 3.61181L1.11197 3.61179C0.730834 3.27946 0.500785 2.81285 0.500785 2.30918C0.500785 1.80552 0.730834 1.33891 1.11197 1.00658C1.49093 0.676159 1.99191 0.499996 2.5023 0.499996C3.01268 0.499996 3.51366 0.676159 3.89262 1.00658L21.8876 16.6966L3.07705 34.9002C2.89486 34.9661 2.69955 35 2.5023 35C2.30504 35 2.10973 34.9661 1.92754 34.9002C1.74535 34.8342 1.57987 34.7376 1.44057 34.6159ZM3.89309 34.9923L21.8876 19.3027C21.8876 19.3026 21.8877 19.3025 21.8878 19.3024C22.0765 19.1383 22.2304 18.9396 22.337 18.7157C22.4438 18.4913 22.5 18.2477 22.5 17.9997C22.5 17.7516 22.4438 17.508 22.337 17.2837C22.2304 17.0597 22.0766 16.8611 21.888 16.6971L3.89309 34.9923Z" fill="white" stroke="white"/>
</svg>
