<svg width="98" height="80" viewBox="0 0 98 80" fill="none" xmlns="http://www.w3.org/2000/svg">
<rect width="98" height="80" fill="#E5E5E5"/>
<rect width="98" height="80" fill="black"/>
<path d="M52.3477 62.0039C47.0039 67.1133 40.6172 69.668 33.1875 69.668C25.2188 69.668 18.4219 66.8672 12.7969 61.2656C7.19531 55.6406 4.39453 48.8438 4.39453 40.875C4.39453 32.9297 7.19531 26.1445 12.7969 20.5195C18.4219 14.8945 25.2188 12.082 33.1875 12.082C40.6172 12.082 47.0742 14.5781 52.5586 19.5703L50.168 21.75C45.3398 17.4609 39.6797 15.3164 33.1875 15.3164C26.1328 15.3164 20.1094 17.8125 15.1172 22.8047C10.125 27.7969 7.62891 33.8203 7.62891 40.875C7.62891 47.9531 10.125 53.9883 15.1172 58.9805C20.1094 63.9727 26.1328 66.4688 33.1875 66.4688C39.2344 66.4688 44.5664 64.6055 49.1836 60.8789V43.7227H52.3477V62.0039Z" fill="white"/>
<path d="M52.3477 62.0039L53.7298 63.4495L54.3477 62.8587V62.0039H52.3477ZM12.7969 61.2656L11.3797 62.6769L11.3856 62.6828L12.7969 61.2656ZM12.7969 20.5195L11.3827 19.1053L11.3797 19.1083L12.7969 20.5195ZM52.5586 19.5703L53.9061 21.0482L55.5284 19.5691L53.9049 18.0913L52.5586 19.5703ZM50.168 21.75L48.8397 23.2452L50.1854 24.4407L51.5155 23.2279L50.168 21.75ZM49.1836 60.8789L50.4397 62.4352L51.1836 61.8348V60.8789H49.1836ZM49.1836 43.7227V41.7227H47.1836V43.7227H49.1836ZM52.3477 43.7227H54.3477V41.7227H52.3477V43.7227ZM50.9655 60.5583C45.996 65.3099 40.1051 67.668 33.1875 67.668V71.668C41.1293 71.668 48.0119 68.9166 53.7298 63.4495L50.9655 60.5583ZM33.1875 67.668C25.7455 67.668 19.4567 65.0752 14.2081 59.8485L11.3856 62.6828C17.3871 68.6592 24.692 71.668 33.1875 71.668V67.668ZM14.214 59.8544C8.98735 54.6058 6.39453 48.317 6.39453 40.875H2.39453C2.39453 49.3705 5.40328 56.6754 11.3797 62.6769L14.214 59.8544ZM6.39453 40.875C6.39453 33.4582 8.98611 27.1806 14.214 21.9308L11.3797 19.1083C5.40452 25.1085 2.39453 32.4012 2.39453 40.875H6.39453ZM14.2111 21.9337C19.4603 16.6845 25.7481 14.082 33.1875 14.082V10.082C24.6894 10.082 17.3835 13.1045 11.3827 19.1053L14.2111 21.9337ZM33.1875 14.082C40.1202 14.082 46.0969 16.393 51.2123 21.0493L53.9049 18.0913C48.0515 12.7632 41.1142 10.082 33.1875 10.082V14.082ZM51.2111 18.0924L48.8205 20.2721L51.5155 23.2279L53.9061 21.0482L51.2111 18.0924ZM51.4962 20.2548C46.2999 15.6386 40.1665 13.3164 33.1875 13.3164V17.3164C39.1929 17.3164 44.3797 19.2832 48.8397 23.2452L51.4962 20.2548ZM33.1875 13.3164C25.6019 13.3164 19.0699 16.0235 13.703 21.3905L16.5314 24.2189C21.1488 19.6015 26.6637 17.3164 33.1875 17.3164V13.3164ZM13.703 21.3905C8.33603 26.7574 5.62891 33.2894 5.62891 40.875H9.62891C9.62891 34.3512 11.914 28.8363 16.5314 24.2189L13.703 21.3905ZM5.62891 40.875C5.62891 48.482 8.33463 55.0263 13.703 60.3947L16.5314 57.5663C11.9154 52.9502 9.62891 47.4242 9.62891 40.875H5.62891ZM13.703 60.3947C19.0699 65.7616 25.6019 68.4688 33.1875 68.4688V64.4688C26.6637 64.4688 21.1488 62.1837 16.5314 57.5663L13.703 60.3947ZM33.1875 68.4688C39.682 68.4688 45.4595 66.4548 50.4397 62.4352L47.9275 59.3226C43.6733 62.7561 38.7868 64.4688 33.1875 64.4688V68.4688ZM51.1836 60.8789V43.7227H47.1836V60.8789H51.1836ZM49.1836 45.7227H52.3477V41.7227H49.1836V45.7227ZM50.3477 43.7227V62.0039H54.3477V43.7227H50.3477Z" fill="white"/>
<path d="M65.4375 41.7539V69H62.2734V12.75H65.4375V36.6914L83.4023 12.75H87.4805L70.6055 35.3906L92.4023 69H88.5L68.5312 37.9219L65.4375 41.7539Z" fill="white"/>
<path d="M65.4375 41.7539L63.8813 40.4976L63.4375 41.0473V41.7539H65.4375ZM65.4375 69V71H67.4375V69H65.4375ZM62.2734 69H60.2734V71H62.2734V69ZM62.2734 12.75V10.75H60.2734V12.75H62.2734ZM65.4375 12.75H67.4375V10.75H65.4375V12.75ZM65.4375 36.6914H63.4375V42.6891L67.0372 37.8918L65.4375 36.6914ZM83.4023 12.75V10.75H82.4026L81.8026 11.5496L83.4023 12.75ZM87.4805 12.75L89.084 13.9452L91.4656 10.75H87.4805V12.75ZM70.6055 35.3906L69.0019 34.1954L68.1702 35.3112L68.9275 36.4789L70.6055 35.3906ZM92.4023 69V71H96.0832L94.0804 67.9118L92.4023 69ZM88.5 69L86.8174 70.0811L87.4078 71H88.5V69ZM68.5312 37.9219L70.2139 36.8407L68.7159 34.5094L66.9751 36.6655L68.5312 37.9219ZM63.4375 41.7539V69H67.4375V41.7539H63.4375ZM65.4375 67H62.2734V71H65.4375V67ZM64.2734 69V12.75H60.2734V69H64.2734ZM62.2734 14.75H65.4375V10.75H62.2734V14.75ZM63.4375 12.75V36.6914H67.4375V12.75H63.4375ZM67.0372 37.8918L85.0021 13.9504L81.8026 11.5496L63.8378 35.491L67.0372 37.8918ZM83.4023 14.75H87.4805V10.75H83.4023V14.75ZM85.8769 11.5548L69.0019 34.1954L72.209 36.5858L89.084 13.9452L85.8769 11.5548ZM68.9275 36.4789L90.7243 70.0882L94.0804 67.9118L72.2835 34.3024L68.9275 36.4789ZM92.4023 67H88.5V71H92.4023V67ZM90.1826 67.9189L70.2139 36.8407L66.8486 39.003L86.8174 70.0811L90.1826 67.9189ZM66.9751 36.6655L63.8813 40.4976L66.9937 43.0102L70.0874 39.1782L66.9751 36.6655Z" fill="white"/>
</svg>
