<svg width="98" height="77" viewBox="0 0 98 77" fill="none" xmlns="http://www.w3.org/2000/svg">
<g clip-path="url(#clip0_31_11)">
<path d="M52.3477 64.0039C47.0039 69.1133 40.6172 71.668 33.1875 71.668C25.2188 71.668 18.4219 68.8672 12.7969 63.2656C7.19531 57.6406 4.39453 50.8438 4.39453 42.875C4.39453 34.9297 7.19531 28.1445 12.7969 22.5195C18.4219 16.8945 25.2188 14.082 33.1875 14.082C40.6172 14.082 47.0742 16.5781 52.5586 21.5703L50.168 23.75C45.3398 19.4609 39.6797 17.3164 33.1875 17.3164C26.1328 17.3164 20.1094 19.8125 15.1172 24.8047C10.125 29.7969 7.62891 35.8203 7.62891 42.875C7.62891 49.9531 10.125 55.9883 15.1172 60.9805C20.1094 65.9727 26.1328 68.4688 33.1875 68.4688C39.2344 68.4688 44.5664 66.6055 49.1836 62.8789V45.7227H52.3477V64.0039Z" fill="black"/>
<path d="M52.3477 64.0039L53.7298 65.4495L54.3477 64.8587V64.0039H52.3477ZM12.7969 63.2656L11.3797 64.6769L11.3856 64.6828L12.7969 63.2656ZM12.7969 22.5195L11.3827 21.1053L11.3797 21.1083L12.7969 22.5195ZM52.5586 21.5703L53.9061 23.0482L55.5284 21.5691L53.9049 20.0913L52.5586 21.5703ZM50.168 23.75L48.8397 25.2452L50.1854 26.4407L51.5155 25.2279L50.168 23.75ZM49.1836 62.8789L50.4397 64.4352L51.1836 63.8348V62.8789H49.1836ZM49.1836 45.7227V43.7227H47.1836V45.7227H49.1836ZM52.3477 45.7227H54.3477V43.7227H52.3477V45.7227ZM50.9655 62.5583C45.996 67.3099 40.1051 69.668 33.1875 69.668V73.668C41.1293 73.668 48.0119 70.9166 53.7298 65.4495L50.9655 62.5583ZM33.1875 69.668C25.7455 69.668 19.4567 67.0752 14.2081 61.8485L11.3856 64.6828C17.3871 70.6592 24.692 73.668 33.1875 73.668V69.668ZM14.214 61.8544C8.98735 56.6058 6.39453 50.317 6.39453 42.875H2.39453C2.39453 51.3705 5.40328 58.6754 11.3797 64.6769L14.214 61.8544ZM6.39453 42.875C6.39453 35.4582 8.98611 29.1806 14.214 23.9308L11.3797 21.1083C5.40452 27.1085 2.39453 34.4012 2.39453 42.875H6.39453ZM14.2111 23.9337C19.4603 18.6845 25.7481 16.082 33.1875 16.082V12.082C24.6894 12.082 17.3835 15.1045 11.3827 21.1053L14.2111 23.9337ZM33.1875 16.082C40.1202 16.082 46.0969 18.393 51.2123 23.0493L53.9049 20.0913C48.0515 14.7632 41.1142 12.082 33.1875 12.082V16.082ZM51.2111 20.0924L48.8205 22.2721L51.5155 25.2279L53.9061 23.0482L51.2111 20.0924ZM51.4962 22.2548C46.2999 17.6386 40.1664 15.3164 33.1875 15.3164V19.3164C39.1929 19.3164 44.3797 21.2832 48.8397 25.2452L51.4962 22.2548ZM33.1875 15.3164C25.6019 15.3164 19.0699 18.0235 13.703 23.3905L16.5314 26.2189C21.1488 21.6015 26.6637 19.3164 33.1875 19.3164V15.3164ZM13.703 23.3905C8.33603 28.7574 5.62891 35.2894 5.62891 42.875H9.62891C9.62891 36.3512 11.914 30.8363 16.5314 26.2189L13.703 23.3905ZM5.62891 42.875C5.62891 50.482 8.33463 57.0263 13.703 62.3947L16.5314 59.5663C11.9154 54.9502 9.62891 49.4242 9.62891 42.875H5.62891ZM13.703 62.3947C19.0699 67.7616 25.6019 70.4688 33.1875 70.4688V66.4688C26.6637 66.4688 21.1488 64.1837 16.5314 59.5663L13.703 62.3947ZM33.1875 70.4688C39.682 70.4688 45.4595 68.4548 50.4397 64.4352L47.9275 61.3226C43.6733 64.7561 38.7868 66.4688 33.1875 66.4688V70.4688ZM51.1836 62.8789V45.7227H47.1836V62.8789H51.1836ZM49.1836 47.7227H52.3477V43.7227H49.1836V47.7227ZM50.3477 45.7227V64.0039H54.3477V45.7227H50.3477Z" fill="black"/>
<path d="M65.4375 43.7539V71H62.2734V14.75H65.4375V38.6914L83.4023 14.75H87.4805L70.6055 37.3906L92.4023 71H88.5L68.5312 39.9219L65.4375 43.7539Z" fill="black"/>
<path d="M65.4375 43.7539L63.8813 42.4976L63.4375 43.0473V43.7539H65.4375ZM65.4375 71V73H67.4375V71H65.4375ZM62.2734 71H60.2734V73H62.2734V71ZM62.2734 14.75V12.75H60.2734V14.75H62.2734ZM65.4375 14.75H67.4375V12.75H65.4375V14.75ZM65.4375 38.6914H63.4375V44.6891L67.0372 39.8918L65.4375 38.6914ZM83.4023 14.75V12.75H82.4026L81.8026 13.5496L83.4023 14.75ZM87.4805 14.75L89.084 15.9452L91.4656 12.75H87.4805V14.75ZM70.6055 37.3906L69.0019 36.1954L68.1702 37.3112L68.9275 38.4789L70.6055 37.3906ZM92.4023 71V73H96.0832L94.0804 69.9118L92.4023 71ZM88.5 71L86.8174 72.0811L87.4078 73H88.5V71ZM68.5312 39.9219L70.2139 38.8407L68.7159 36.5094L66.9751 38.6655L68.5312 39.9219ZM63.4375 43.7539V71H67.4375V43.7539H63.4375ZM65.4375 69H62.2734V73H65.4375V69ZM64.2734 71V14.75H60.2734V71H64.2734ZM62.2734 16.75H65.4375V12.75H62.2734V16.75ZM63.4375 14.75V38.6914H67.4375V14.75H63.4375ZM67.0372 39.8918L85.0021 15.9504L81.8026 13.5496L63.8378 37.491L67.0372 39.8918ZM83.4023 16.75H87.4805V12.75H83.4023V16.75ZM85.8769 13.5548L69.0019 36.1954L72.209 38.5858L89.084 15.9452L85.8769 13.5548ZM68.9275 38.4789L90.7243 72.0882L94.0804 69.9118L72.2835 36.3024L68.9275 38.4789ZM92.4023 69H88.5V73H92.4023V69ZM90.1826 69.9189L70.2139 38.8407L66.8486 41.003L86.8174 72.0811L90.1826 69.9189ZM66.9751 38.6655L63.8813 42.4976L66.9937 45.0102L70.0874 41.1782L66.9751 38.6655Z" fill="black"/>
</g>
<defs>
<clipPath id="clip0_31_11">
<rect width="98" height="77" fill="white"/>
</clipPath>
</defs>
</svg>
