<svg width="98" height="80" viewBox="0 0 98 80" fill="none" xmlns="http://www.w3.org/2000/svg">
<rect width="98" height="80" fill="#E5E5E5"/>
<rect width="98" height="80" rx="9" fill="black"/>
<path d="M54.3477 62.0039C49.0039 67.1133 42.6172 69.668 35.1875 69.668C27.2188 69.668 20.4219 66.8672 14.7969 61.2656C9.19531 55.6406 6.39453 48.8438 6.39453 40.875C6.39453 32.9297 9.19531 26.1445 14.7969 20.5195C20.4219 14.8945 27.2188 12.082 35.1875 12.082C42.6172 12.082 49.0742 14.5781 54.5586 19.5703L52.168 21.75C47.3398 17.4609 41.6797 15.3164 35.1875 15.3164C28.1328 15.3164 22.1094 17.8125 17.1172 22.8047C12.125 27.7969 9.62891 33.8203 9.62891 40.875C9.62891 47.9531 12.125 53.9883 17.1172 58.9805C22.1094 63.9727 28.1328 66.4688 35.1875 66.4688C41.2344 66.4688 46.5664 64.6055 51.1836 60.8789V43.7227H54.3477V62.0039Z" fill="white"/>
<path d="M54.3477 62.0039L55.7298 63.4495L56.3477 62.8587V62.0039H54.3477ZM14.7969 61.2656L13.3797 62.6769L13.3856 62.6828L14.7969 61.2656ZM14.7969 20.5195L13.3827 19.1053L13.3797 19.1083L14.7969 20.5195ZM54.5586 19.5703L55.9061 21.0482L57.5284 19.5691L55.9049 18.0913L54.5586 19.5703ZM52.168 21.75L50.8397 23.2452L52.1854 24.4407L53.5155 23.2279L52.168 21.75ZM51.1836 60.8789L52.4397 62.4352L53.1836 61.8348V60.8789H51.1836ZM51.1836 43.7227V41.7227H49.1836V43.7227H51.1836ZM54.3477 43.7227H56.3477V41.7227H54.3477V43.7227ZM52.9655 60.5583C47.996 65.3099 42.1051 67.668 35.1875 67.668V71.668C43.1293 71.668 50.0119 68.9166 55.7298 63.4495L52.9655 60.5583ZM35.1875 67.668C27.7455 67.668 21.4567 65.0752 16.2081 59.8485L13.3856 62.6828C19.3871 68.6592 26.692 71.668 35.1875 71.668V67.668ZM16.214 59.8544C10.9873 54.6058 8.39453 48.317 8.39453 40.875H4.39453C4.39453 49.3705 7.40328 56.6754 13.3797 62.6769L16.214 59.8544ZM8.39453 40.875C8.39453 33.4582 10.9861 27.1806 16.214 21.9308L13.3797 19.1083C7.40452 25.1085 4.39453 32.4012 4.39453 40.875H8.39453ZM16.2111 21.9337C21.4603 16.6845 27.7481 14.082 35.1875 14.082V10.082C26.6894 10.082 19.3835 13.1045 13.3827 19.1053L16.2111 21.9337ZM35.1875 14.082C42.1202 14.082 48.0969 16.393 53.2123 21.0493L55.9049 18.0913C50.0515 12.7632 43.1142 10.082 35.1875 10.082V14.082ZM53.2111 18.0924L50.8205 20.2721L53.5155 23.2279L55.9061 21.0482L53.2111 18.0924ZM53.4962 20.2548C48.2999 15.6386 42.1664 13.3164 35.1875 13.3164V17.3164C41.1929 17.3164 46.3797 19.2832 50.8397 23.2452L53.4962 20.2548ZM35.1875 13.3164C27.6019 13.3164 21.0699 16.0235 15.703 21.3905L18.5314 24.2189C23.1488 19.6015 28.6637 17.3164 35.1875 17.3164V13.3164ZM15.703 21.3905C10.336 26.7574 7.62891 33.2894 7.62891 40.875H11.6289C11.6289 34.3512 13.914 28.8363 18.5314 24.2189L15.703 21.3905ZM7.62891 40.875C7.62891 48.482 10.3346 55.0263 15.703 60.3947L18.5314 57.5663C13.9154 52.9502 11.6289 47.4242 11.6289 40.875H7.62891ZM15.703 60.3947C21.0699 65.7616 27.6019 68.4688 35.1875 68.4688V64.4688C28.6637 64.4688 23.1488 62.1837 18.5314 57.5663L15.703 60.3947ZM35.1875 68.4688C41.682 68.4688 47.4595 66.4548 52.4397 62.4352L49.9275 59.3226C45.6733 62.7561 40.7868 64.4688 35.1875 64.4688V68.4688ZM53.1836 60.8789V43.7227H49.1836V60.8789H53.1836ZM51.1836 45.7227H54.3477V41.7227H51.1836V45.7227ZM52.3477 43.7227V62.0039H56.3477V43.7227H52.3477Z" fill="white"/>
<path d="M67.4375 41.7539V69H64.2734V12.75H67.4375V36.6914L85.4023 12.75H89.4805L72.6055 35.3906L94.4023 69H90.5L70.5312 37.9219L67.4375 41.7539Z" fill="white"/>
<path d="M67.4375 41.7539L65.8813 40.4976L65.4375 41.0473V41.7539H67.4375ZM67.4375 69V71H69.4375V69H67.4375ZM64.2734 69H62.2734V71H64.2734V69ZM64.2734 12.75V10.75H62.2734V12.75H64.2734ZM67.4375 12.75H69.4375V10.75H67.4375V12.75ZM67.4375 36.6914H65.4375V42.6891L69.0372 37.8918L67.4375 36.6914ZM85.4023 12.75V10.75H84.4026L83.8026 11.5496L85.4023 12.75ZM89.4805 12.75L91.084 13.9452L93.4656 10.75H89.4805V12.75ZM72.6055 35.3906L71.0019 34.1954L70.1702 35.3112L70.9275 36.4789L72.6055 35.3906ZM94.4023 69V71H98.0832L96.0804 67.9118L94.4023 69ZM90.5 69L88.8174 70.0811L89.4078 71H90.5V69ZM70.5312 37.9219L72.2139 36.8407L70.7159 34.5094L68.9751 36.6655L70.5312 37.9219ZM65.4375 41.7539V69H69.4375V41.7539H65.4375ZM67.4375 67H64.2734V71H67.4375V67ZM66.2734 69V12.75H62.2734V69H66.2734ZM64.2734 14.75H67.4375V10.75H64.2734V14.75ZM65.4375 12.75V36.6914H69.4375V12.75H65.4375ZM69.0372 37.8918L87.0021 13.9504L83.8026 11.5496L65.8378 35.491L69.0372 37.8918ZM85.4023 14.75H89.4805V10.75H85.4023V14.75ZM87.8769 11.5548L71.0019 34.1954L74.209 36.5858L91.084 13.9452L87.8769 11.5548ZM70.9275 36.4789L92.7243 70.0882L96.0804 67.9118L74.2835 34.3024L70.9275 36.4789ZM94.4023 67H90.5V71H94.4023V67ZM92.1826 67.9189L72.2139 36.8407L68.8486 39.003L88.8174 70.0811L92.1826 67.9189ZM68.9751 36.6655L65.8813 40.4976L68.9937 43.0102L72.0874 39.1782L68.9751 36.6655Z" fill="white"/>
</svg>
